<svg xmlns="http://www.w3.org/2000/svg" viewBox="0 0 108.5 108.5"><g id="Capa_2" data-name="Capa 2"><g id="Capa_1-2" data-name="Capa 1"><path d="M50.43,73.74a3.92,3.92,0,0,1-3-1.36L26.85,50a4.05,4.05,0,0,1,6-5.45L50.57,63.79,99.64,14.86a4,4,0,0,1,5.72,5.72L53.3,72.52A3.76,3.76,0,0,1,50.43,73.74Z" fill="#0acee9"/><path d="M54.25,108.5A54.25,54.25,0,0,1,54.25,0a4,4,0,0,1,4.09,4.09,4,4,0,0,1-4.09,4.09,46.07,46.07,0,1,0,46.07,46.07,4.09,4.09,0,0,1,8.18,0A54.39,54.39,0,0,1,54.25,108.5Z" fill="#4b26e3"/></g></g></svg>