<svg xmlns="http://www.w3.org/2000/svg" viewBox="0 0 305.62 215.05">
    <defs>
        <style>.cls-1{fill:#868686;}</style>
    </defs>
    <g id="Capa_2" data-name="Capa 2">
        <g id="Capa_1-2" data-name="Capa 1">
            <path class="cls-1" d="M24.82,215.05c-24.46,0-.4-24.82-.4-24.82L86.78,121.7c6.07-6.66,17.77-16.78,24.61-11.2s16,16.89,22.35,23.27l12.89,12.91c6.91,6.12,12.23,0,12.23,0l13.2-13c6.42-6.33,15.61-17.36,22.46-22.5s18.51,4.63,24.56,11.31l62,68.5c24.47,24.06.4,24.06.4,24.06ZM35.4,158.67c-6.06,6.67-14.92,18.26-20.91,25C7.73,191.27,0,197,0,183.73L.29,50c0-9-.22-26.2,5.93-23.12,2.29,1.15,5.43,3.54,9.68,7.8L66.36,76c7,5.7,16.8,12.68,20,17.34,2,2.93,3,6.34,0,9.29Zm136-47.5c-7,5.72-14.54,13.83-18.4,13.84s-11.58-7.92-18.58-13.6L24.63,22.34c-7-5.67-19-17.1-13.06-20.16C15.9,0,23.46,0,23.46,0h258c23.23,0,11.42,11.47,11.42,11.47Zm119.69,72.5c-6-6.73-14.87-18.33-20.92-25l-51-56c-3-3-2-6.36,0-9.29,3.21-4.65,13-11.63,20-17.33l37.85-31c7-5.71,16.14-15,22.29-18.13S305.27,41,305.29,50l.33,133.7C305.62,197,297.88,191.27,291.11,183.67Z" />
        </g>
    </g>
</svg>