<svg xmlns="http://www.w3.org/2000/svg" viewBox="0 0 511.51 512">
    <defs>
        <style>.cls-1{fill:#868686;}</style>
    </defs>
    <g id="Capa_2" data-name="Capa 2">
        <g id="Capa_1-2" data-name="Capa 1">
            <path class="cls-1" d="M435.92,74.35A255.89,255.89,0,0,0,75.3,74.29C26.8,122.28.06,186.05,0,253.63v.12c0,40.91,10.75,82.17,31.15,119.83L.7,512l140-31.85a256.22,256.22,0,0,0,114.93,27.31h.11a255.07,255.07,0,0,0,180.44-74.3c48.54-48,75.29-111.71,75.32-179.34C511.53,186.68,484.69,122.94,435.92,74.35ZM255.74,467.5h-.09a216.09,216.09,0,0,1-102.67-26l-6.62-3.6-93.1,21.18,20.22-91.91-3.89-6.72C50.2,327,40,290.11,40,253.71,40,135.91,136.82,40,255.73,40a214,214,0,0,1,152,62.7c41.17,41,63.84,94.71,63.82,151.15C471.5,371.64,374.69,467.5,255.74,467.5Z" />
            <path class="cls-1" d="M186.15,141.86H174.94a21.51,21.51,0,0,0-15.6,7.3C154,155,138.87,169.1,138.87,197.79s21,56.4,23.88,60.3,40.47,64.64,99.93,88c49.42,19.42,59.48,15.56,70.2,14.58s34.62-14.1,39.49-27.71,4.88-25.29,3.42-27.72-5.37-3.89-11.22-6.8-34.52-17.27-39.89-19.22-9.26-2.91-13.16,2.93-15.39,19.31-18.81,23.2-6.82,4.39-12.67,1.47-24.5-9.19-46.85-29.05c-17.39-15.46-29.46-35.17-32.88-41s-.36-9,2.57-11.89c2.63-2.61,6.18-6.18,9.11-9.59s3.75-5.83,5.71-9.72,1-7.3-.49-10.21-12.69-31.75-17.9-43.29h0C194.93,142.36,190.32,142,186.15,141.86Z" />
        </g>
    </g>
</svg>