<svg xmlns="http://www.w3.org/2000/svg" xmlns:xlink="http://www.w3.org/1999/xlink" viewBox="0 0 233.98 220.47"><defs><linearGradient id="Degradado_sin_nombre" x1="-971.76" y1="2134.34" x2="-1043.67" y2="2346.76" gradientTransform="translate(1075 -2118)" gradientUnits="userSpaceOnUse"><stop offset="0" stop-color="#114a8b"/><stop offset="1" stop-color="#0669bc"/></linearGradient><linearGradient id="Degradado_sin_nombre_2" x1="-949.3" y1="2233.33" x2="-965.93" y2="2238.95" gradientTransform="translate(1075 -2118)" gradientUnits="userSpaceOnUse"><stop offset="0" stop-opacity="0.3"/><stop offset="0.07" stop-opacity="0.2"/><stop offset="0.32" stop-opacity="0.1"/><stop offset="0.62" stop-opacity="0.05"/><stop offset="1" stop-opacity="0"/></linearGradient><linearGradient id="Degradado_sin_nombre_3" x1="-957.93" y1="2127.95" x2="-879" y2="2338.23" gradientTransform="translate(1075 -2118)" gradientUnits="userSpaceOnUse"><stop offset="0" stop-color="#3ccbf4"/><stop offset="1" stop-color="#2892df"/></linearGradient></defs><g id="Capa_2" data-name="Capa 2"><g id="b48db8d1-59c0-409d-89ab-baf5bac53ae6"><path d="M78,0h69.24L75.37,213a11,11,0,0,1-10.46,7.51H11a11,11,0,0,1-11-11,11.16,11.16,0,0,1,.58-3.53l67-198.41A11,11,0,0,1,78,0Z" fill="url(#Degradado_sin_nombre)"/><path d="M178.62,142.84H68.82a5.09,5.09,0,0,0-3.47,8.8l70.55,65.85a11.14,11.14,0,0,0,7.57,3h62.17Z" fill="#0078d4"/><path d="M78,0A10.94,10.94,0,0,0,67.52,7.65L.66,205.74a11,11,0,0,0,10.39,14.73H66.33a11.82,11.82,0,0,0,9.07-7.72l13.33-39.29,47.62,44.42a11.28,11.28,0,0,0,7.09,2.59h61.94l-27.17-77.63-79.19,0L147.49,0Z" fill="url(#Degradado_sin_nombre_2)"/><path d="M166.44,7.5A11,11,0,0,0,156,0H78.83A11,11,0,0,1,89.27,7.5l67,198.42a11,11,0,0,1-6.92,14,11.15,11.15,0,0,1-3.52.58H223a11,11,0,0,0,11-11,10.83,10.83,0,0,0-.58-3.52Z" fill="url(#Degradado_sin_nombre_3)"/></g></g></svg>