<svg xmlns="http://www.w3.org/2000/svg" xmlns:xlink="http://www.w3.org/1999/xlink" viewBox="0 0 7281.8 8192"><defs><linearGradient id="Degradado_sin_nombre_2" x1="-211953.88" y1="13956.1" x2="-211953.88" y2="-57448" gradientTransform="matrix(0.02, 0, 0, -0.02, -79.99, -900.16)" gradientUnits="userSpaceOnUse"><stop offset="0" stop-color="#fff" stop-opacity="0"/><stop offset="0.39" stop-color="#fff"/><stop offset="1" stop-color="#fff" stop-opacity="0.83"/></linearGradient><linearGradient id="Degradado_sin_nombre_2-2" x1="-122738.38" y1="52387.2" x2="-122738.38" y2="-21834" xlink:href="#Degradado_sin_nombre_2"/><mask id="mask" x="1517.25" y="2444.5" width="2124.67" height="1762.2" maskUnits="userSpaceOnUse"><g transform="translate(7868.55 3691.33)"><g id="id0"><path d="M-6351.3-1246.83h2124.67V515.37H-6351.3Z" fill-rule="evenodd" fill="url(#Degradado_sin_nombre_2)"/></g></g></mask><linearGradient id="Degradado_sin_nombre_4" x1="-211954.38" y1="13956" x2="-211954.38" y2="-57448" gradientTransform="matrix(0.02, 0, 0, -0.02, -79.99, -900.16)" gradientUnits="userSpaceOnUse"><stop offset="0" stop-color="#d1d3d4"/><stop offset="0.39" stop-color="#d1d3d4"/><stop offset="1" stop-color="#d1d3d4"/></linearGradient><mask id="mask-2" x="3634.55" y="1500.02" width="2275.2" height="1831.43" maskUnits="userSpaceOnUse"><g transform="translate(7868.55 3691.33)"><g id="id2"><path d="M-4234-2191.31h2275.2V-359.88H-4234Z" fill-rule="evenodd" fill="url(#Degradado_sin_nombre_2-2)"/></g></g></mask><linearGradient id="Degradado_sin_nombre_4-2" x1="-122738.38" y1="52387" x2="-122738.38" y2="-21834" xlink:href="#Degradado_sin_nombre_4"/><linearGradient id="Degradado_sin_nombre_6" x1="-254898.38" y1="-89295" x2="-83402.38" y2="-89295" gradientTransform="matrix(0.02, 0, 0, -0.02, -79.99, -900.16)" gradientUnits="userSpaceOnUse"><stop offset="0" stop-color="#e8e7e5"/><stop offset="1" stop-color="#fff"/></linearGradient><linearGradient id="Degradado_sin_nombre_6-2" x1="-262788.38" y1="34217.5" x2="-76599.38" y2="34217.5" xlink:href="#Degradado_sin_nombre_6"/></defs><g id="Capa_2" data-name="Capa 2"><g id="Capa_1-2" data-name="Capa 1"><g id="Layer_1"><g id="_513085304" data-name=" 513085304"><path d="M-1269.47,3704.13l-2958.2,796.54-2958.24-796.54-682.64-7395.46h7281.8Z" transform="translate(7868.55 3691.33)" fill="#2062af" fill-rule="evenodd"/><path d="M-4227.71-3092.32v6957.7l6.7,1.82,2393.93-644.61,552.59-6314.91Z" transform="translate(7868.55 3691.33)" fill="#3c9cd7" fill-rule="evenodd"/><path d="M-4230.32-1243.14l-2117.3,881.78,70.22,873,2047.08-875.25,2177.53-931,90.3-893.07Z" transform="translate(7868.55 3691.33)" fill="#fff" fill-rule="evenodd"/><g mask="url(#mask)"><path d="M-6347.62-361.36l70.22,873,2047.06-875.25v-879.57Z" transform="translate(7868.55 3691.33)" fill-rule="evenodd" fill="url(#Degradado_sin_nombre_4)"/></g><g mask="url(#mask-2)"><path d="M-1962.49-2187.62l-2267.83,944.48v879.57l2177.53-931Z" transform="translate(7868.55 3691.33)" fill-rule="evenodd" fill="url(#Degradado_sin_nombre_4-2)"/></g><path d="M-6344.37-361.36l70.23,873,3141,10-70.27,1164-1033.54,291-993.56-250.87-60.21-722.51h-923.17l120.42,1394.83,1866.55,551.91,1856.42-541.9,240.85-2769.53Z" transform="translate(7868.55 3691.33)" fill-rule="evenodd" fill="url(#Degradado_sin_nombre_6)"/><path d="M-4230.32-361.36H-6347.59l70.21,873,2047.06,6.54Zm0,2335.27-10,2.8-993.41-250.87L-5294,1003.33h-923.15l120.4,1394.83,1866.4,551.91Z" transform="translate(7868.55 3691.33)" fill-opacity="0.05" fill-rule="evenodd"/><path d="M-6538.28-2187.62h4575.79l-90.3,893.06H-6427.91Z" transform="translate(7868.55 3691.33)" fill-rule="evenodd" fill="url(#Degradado_sin_nombre_6-2)"/><path d="M-4230.32-2187.62h-2308l110.37,893.06h2197.59Z" transform="translate(7868.55 3691.33)" fill-opacity="0.05" fill-rule="evenodd"/></g></g></g></g></svg>