<svg xmlns="http://www.w3.org/2000/svg" viewBox="0 0 2198.97 2499.14"><g id="Capa_2" data-name="Capa 2"><g id="svg4525"><rect x="1178.75" y="102.32" width="735.43" height="1918.29" fill="#fff"/><g id="g5193"><path id="path5113" d="M204.12,2247,0,0,2199,.86l-202.4,2244.42-898.8,253.86Zm1626.93-122.64L2001.72,199.83H1101.2l6.86,2122.64ZM1017.15,482H798.46l-2.58,1151.8L371.36,1518l.85,263.29,644.94,174.1V482Z" fill="#d4b830"/><path id="path5159" d="M945.11,1934c-28.3-8.57-168.09-46.31-310.46-84.9L376.5,1779.59v-129.5c0-126.93,0-129.51,12.87-125.22,6.86,2.57,101.2,28.3,209.26,58.32l196.4,54,1.71-574.61L798.46,488h214.4V1218.7c0,580.61-1.71,730.7-7.71,730.7-4.29-.86-31.74-7.72-60-15.44Z" fill="#ebebeb" fill-opacity="0" opacity="0.99" style="isolation:isolate"/><path id="path5157" d="M372.21,1781.3,371.36,1518s271,76.33,424.52,115.78l2.58-1150.94h218.69V1955.4L372.21,1781.3Z" fill="#ebebeb" fill-opacity="0.92" opacity="0.99" style="isolation:isolate"/><path id="path5117" d="M1101.2,199h900.52L1831.05,2123.5,1101.2,2321.61ZM1784.73,1801l59.18-719.55-437.39,48.88V746.14l466.55-1.71L1891.94,482l-704.12,3.43,9.44,955.4,425.38-72.9-6,212.7-428.82,114.06,4.29,260.72L1784.73,1801Z" fill="#fdd83c"/></g></g></g></svg>