<svg xmlns="http://www.w3.org/2000/svg" viewBox="0 0 945.71 942"><g id="Capa_2" data-name="Capa 2"><g id="Capa_1-2" data-name="Capa 1"><path d="M556.85,0A60,60,0,0,0,537.8,3.42c12.45,8.3,19.29,19.29,22.71,31.75.24,1.71.73,2.93,1,4.64a27.41,27.41,0,0,1,.48,4.4c1,21.49-5.61,24.17-10.25,36.87a52.17,52.17,0,0,0,3.42,48.12,29.06,29.06,0,0,0,2.93,5.37c-9.28-61.79,42.25-71.07,51.77-90.36.74-16.86-13.18-28.09-24.17-35.91A54,54,0,0,0,556.85,0Zm77.66,13.92c-1,5.62-.24,4.15-.49,7.08-.24,2-.24,4.4-.48,6.35a54.12,54.12,0,0,1-1.71,5.87,56.74,56.74,0,0,1-2,5.86c-1,2-1.71,3.66-2.68,5.61-.74,1-1.23,2-2,2.94l-1.46,2.19c-1.23,1.71-2.45,3.42-3.67,4.89a37.15,37.15,0,0,1-4.39,4.39v.25c-1.47,1.22-2.93,2.69-4.64,3.91-5.13,3.9-11,6.83-16.37,10.5a36.33,36.33,0,0,0-4.88,3.66,34.9,34.9,0,0,0-4.64,3.91,39.44,39.44,0,0,0-4.4,4.64,36.12,36.12,0,0,0-3.66,4.88c-1.22,1.71-2.44,3.42-3.42,5.13-1,2-1.71,3.67-2.69,5.62a51.32,51.32,0,0,0-2,5.62c-.73,2.2-1.22,4.15-1.71,6.1-.25,1-.25,2.2-.49,3.18s-.24,2-.49,2.93c0,1.95-.24,4.15-.24,6.11a26.93,26.93,0,0,0,.24,4.39,27.64,27.64,0,0,0,.74,6.11,49.25,49.25,0,0,0,1.22,5.86c.73,1.95,1.22,3.91,1.95,5.86.49,1.22,1.22,2.44,1.71,3.42l-56.17-21.74c-9.53-2.68-18.81-5.13-28.33-7.32l-15.39-3.67c-14.65-2.93-29.55-5.13-44.45-6.59-.49,0-.73-.25-1.22-.25-14.66-1.46-29.07-2.19-43.72-2.19-10.75,0-21.49.48-32,1.22-14.9,1-29.8,2.93-44.7,5.37-3.66.49-7.33,1.22-11,1.95-7.57,1.47-14.9,3.18-22,4.89l-11,2.93c-3.66,1.46-7.08,3.17-10.5,4.64l-8.06,3.66c-.49.25-1,.25-1.22.49-2.45,1.22-4.64,2.2-6.84,3.42a13.46,13.46,0,0,0-1.71.73c-2.69,1.22-5.37,2.69-7.57,3.91-1.71.73-3.42,1.71-4.89,2.44a21.45,21.45,0,0,1-2.19,1.22c-2.2,1.23-4.4,2.45-6.35,3.67a61.45,61.45,0,0,0-5.87,3.66c-1.71,1.22-3.42,2.2-4.88,3.42-.25.25-.49.25-.73.49a55.64,55.64,0,0,0-4.64,3.42l-.49.49-3.67,2.93c-.48.24-1,.73-1.46,1-1.22,1-2.44,2.2-3.66,3.18-.25.49-.74.73-1,1-1.47,1.46-2.93,2.68-4.4,4.15-.24,0-.24.24-.49.49-1.46,1.22-2.93,2.68-4.39,4.15-.25.24-.25.49-.49.49-1.22,1.22-2.44,2.44-3.66,3.9-.49.49-1.22,1-1.71,1.47-1.22,1.46-2.69,2.93-4.16,4.4-.24.48-.73.73-1,1.22-2,1.95-3.67,3.9-5.62,5.86l-.73.73a145.27,145.27,0,0,1-12.46,12,135.9,135.9,0,0,1-13.68,10.74c-4.88,3.42-9.52,6.35-14.65,9.29a149.45,149.45,0,0,1-15.39,7.32c-5.12,2.2-10.5,4.15-15.87,5.86-10.26,2.2-20.76,6.35-29.8,7.09a50.73,50.73,0,0,0-6.1.73c-2.2.49-4.15,1-6.11,1.46L39.81,253A63.57,63.57,0,0,0,34,255.71c-1.71,1.22-3.67,2.2-5.37,3.42a39.7,39.7,0,0,0-4.89,4.15,40.83,40.83,0,0,0-4.88,4.4c-1.47,1.71-2.93,3.17-4.16,4.88-1.22,2-2.68,3.66-3.66,5.62a43.13,43.13,0,0,0-3.42,5.62c-1,2.19-1.95,4.15-2.69,6.35-.73,2-1.46,4.15-2.19,6.35a48.44,48.44,0,0,0-1.22,5.86c0,.24-.25.49-.25.73-.49,2.2-.49,5.13-.73,6.59A32.41,32.41,0,0,0,0,314.57a14.08,14.08,0,0,0,.24,3.17,26.2,26.2,0,0,0,1,4.64,32.71,32.71,0,0,0,1.71,4.4V327a41.48,41.48,0,0,0,2.69,4.39,50.36,50.36,0,0,0,3.17,4.4C10,337,11.48,338.5,13,339.73a35.6,35.6,0,0,0,4.64,3.9c5.86,5.13,7.32,6.84,14.89,10.75,1.22.73,2.45,1.22,3.91,1.95.25,0,.49.25.73.25a2.15,2.15,0,0,0,.25,1.22,48.84,48.84,0,0,0,1.22,5.86,33.24,33.24,0,0,0,1.95,5.86c.74,1.47,1.22,2.93,2,4.4a5.21,5.21,0,0,0,.73,1.22c1,1.95,2,3.66,2.93,5.37l3.66,5.13c1.23,1.47,2.69,3.18,4.16,4.64s2.93,2.69,4.64,4.15a.83.83,0,0,0,.48.25c1.47,1.22,2.94,2.44,4.4,3.42a38.49,38.49,0,0,0,5.37,3.17A39.37,39.37,0,0,0,74.49,404a29.3,29.3,0,0,0,4.89,1.71c.24.24.48.24,1,.49,1,.24,2.2.49,3.18.73-.73,13.19-1,25.64,1,30,2.19,4.88,12.94-10,23.69-27.11-1.47,16.85-2.45,36.64,0,42.5,2.68,6.1,17.34-12.95,30-33.95C311.4,378.31,469.41,498,486,667c-3.17-26.38-35.66-41-50.55-37.37-7.33,18.07-19.79,41.27-39.81,55.68a156.54,156.54,0,0,0-2.45-48.84A157.85,157.85,0,0,1,362.93,698c-23.2,1.71-46.4-9.52-58.62-26.37-1-.74-1.22-2.2-1.95-3.18a43,43,0,0,1-1.95-5.13,20.23,20.23,0,0,1-1.47-5.13,38.46,38.46,0,0,1-.24-5.37v-3.66a38.15,38.15,0,0,1,1.22-5.13,41.14,41.14,0,0,1,1.71-5.13,53.62,53.62,0,0,1,2.93-5.13c4.15-11.72,4.15-21.25-3.42-26.86a28.35,28.35,0,0,0-4.64-2.45c-1-.24-2.2-.73-3.18-1-.73-.25-1.22-.49-1.95-.74a39.74,39.74,0,0,0-5.13-1.22,18.54,18.54,0,0,0-5.13-.73,39,39,0,0,0-5.37-.49c-1.22,0-2.44.25-3.67.25a19,19,0,0,0-5.37.73,37.07,37.07,0,0,0-5.13,1,39.56,39.56,0,0,0-5.13,1.71c-1.71.73-3.17,1.46-4.88,2.19-1.47.74-2.93,1.71-4.64,2.45C190,645.75,224,732.7,262.79,757.85c-14.65,2.69-29.55,5.86-33.7,9l-.49.49a229.89,229.89,0,0,0,33,16.36c15.63,5.13,32.24,9.77,39.57,11.72v.25a236.43,236.43,0,0,0,61.55,4.39c108.19-7.57,196.85-89.87,213-198.31.48,2.2,1,4.15,1.46,6.35.73,4.39,1.71,9,2.2,13.67v.25c.49,2.2.73,4.39,1,6.35v1a60.89,60.89,0,0,1,.48,6.35c.25,2.68.49,5.37.49,8.06v3.9c0,1.22.25,2.69.25,3.91,0,1.47-.25,2.93-.25,4.4v3.42c0,1.71-.24,3.17-.24,4.88a14.71,14.71,0,0,1-.25,3.18c0,1.71-.24,3.42-.24,5.37a6.6,6.6,0,0,0-.25,2.2c-.24,2-.48,3.66-.73,5.61a6.86,6.86,0,0,1-.24,2.2c-.25,2.45-.74,4.64-1,7.09v.49c-.49,2.19-1,4.64-1.47,6.83V698q-.72,3.29-1.46,6.59c0,.25-.25.73-.25,1a61.44,61.44,0,0,1-1.71,6.59v.73c-.73,2.45-1.46,4.64-2,6.84a.78.78,0,0,0-.24.49c-.74,2.44-1.47,4.89-2.2,7.33-1,2.44-1.71,4.64-2.69,7.08s-1.71,4.89-2.69,7.08c-1,2.45-1.95,4.64-2.93,7.09h-.24c-1,2.19-2,4.64-3.18,6.83a10.28,10.28,0,0,1-.73,1.71c-.24.25-.24.49-.49.74a231.12,231.12,0,0,1-68.63,82.06c-2,1.22-3.9,2.69-5.86,4.15-.49.49-1.22.73-1.71,1.22-1.71,1.22-3.42,2.44-5.37,3.67l.73,1.46h.25l10.25-1.46H486c6.35-1,12.7-2.2,19.05-3.42a43.29,43.29,0,0,0,5.37-1.23c1.22-.24,2.2-.48,3.42-.73,1.71-.24,3.42-.73,5.13-1,1.47-.48,2.93-.73,4.4-1.22a463.1,463.1,0,0,0,70.82-23.44A391,391,0,0,1,442.55,942a401.33,401.33,0,0,0,83.28-14.41A390.23,390.23,0,0,0,756.63,743.2a390,390,0,0,1-65.7,157A383.8,383.8,0,0,0,859,638.42,388.84,388.84,0,0,1,866,756.14c176.34-245.94,14.66-500.92-53-568.08-.24-.49-.48-.73-.48-1.22-.25.24-.25.24-.25.49,0-.25,0-.25-.24-.49,0,2.93-.25,5.86-.49,8.79-.73,5.62-1.47,11-2.44,16.37-1.22,5.37-2.69,10.74-4.16,16.11-1.7,5.13-3.66,10.51-5.86,15.64-2.19,4.88-4.64,10-7.32,14.89-2.69,4.64-5.62,9.53-8.8,13.92-3.17,4.64-6.59,9-10,13.19-3.66,4.4-7.57,8.31-11.48,12.21-2.44,2.2-4.64,4.16-7.08,6.11-1.95,1.71-3.66,3.18-5.62,4.88a134.82,134.82,0,0,1-13.68,9.53c-4.64,2.93-9.52,5.86-14.4,8.3-5.13,2.45-10.26,4.64-15.39,6.84-5.13,2-10.5,3.67-15.88,5.13s-11,2.69-16.36,3.66c-5.62,1-11.23,1.47-16.61,2-3.91.24-7.81.49-11.72.49-5.62,0-11.24-.49-16.61-1a124.22,124.22,0,0,1-16.61-2.44,125.6,125.6,0,0,1-16.36-4.15H595c5.37-.49,10.74-1,16.11-2,5.62-1,11-2.2,16.37-3.66s10.74-3.18,15.87-5.13a147.44,147.44,0,0,0,15.39-6.84c5.13-2.44,9.77-5.13,14.65-8.06,4.64-3.17,9.28-6.35,13.68-9.77a133.17,133.17,0,0,0,12.46-11,132.53,132.53,0,0,0,11.48-12q5.49-6.59,10.25-13.18c.49-.74,1-1.71,1.47-2.45,2.44-3.9,4.88-7.81,7.08-11.72,2.69-4.88,5.13-9.77,7.33-14.9S741.24,226.4,743,221c1.71-5.13,2.93-10.5,4.15-15.87,1-5.62,2-11,2.44-16.37.49-5.62,1-11.23,1-16.61,0-3.9-.24-7.81-.49-11.72-.48-5.62-1.22-11-1.95-16.36-1-5.62-2.2-11-3.66-16.37-1.71-5.12-3.42-10.5-5.38-15.63A166,166,0,0,0,732.2,97c-2.68-4.88-5.37-9.77-8.3-14.41-3.17-4.64-6.35-9-9.77-13.43-3.66-4.15-7.33-8.3-11.23-12.46-2-1.95-4.16-4.15-6.35-6.1C685.56,42,674.08,34,662.6,26.62a46.39,46.39,0,0,0-4.89-2.44c-8.06-5.13-15.63-7.82-23.2-10.26Z" fill="#e0234e" fill-rule="evenodd"/></g></g></svg>