<svg xmlns="http://www.w3.org/2000/svg" viewBox="0 0 26.3 26"><g id="Capa_2" data-name="Capa 2"><g id="Capa_1-2" data-name="Capa 1"><path d="M1,0H25.31a1,1,0,0,1,1,1V25a1,1,0,0,1-1,1H1a1,1,0,0,1-1-1V1A1,1,0,0,1,1,0ZM14.62,13.83V11.7H5.26v2.13H8.6v9.5h2.66v-9.5Zm1.06,9.25a5.91,5.91,0,0,0,1.52.48,10,10,0,0,0,1.85.17,8.72,8.72,0,0,0,1.8-.18,4.57,4.57,0,0,0,1.5-.59,3,3,0,0,0,1-1.07A3.77,3.77,0,0,0,23.53,19a2.84,2.84,0,0,0-.62-.95,4.67,4.67,0,0,0-1-.74,10.76,10.76,0,0,0-1.27-.62c-.35-.14-.66-.28-.93-.41a5.62,5.62,0,0,1-.71-.4,1.83,1.83,0,0,1-.44-.44,1,1,0,0,1-.16-.52.93.93,0,0,1,.14-.49,1.43,1.43,0,0,1,.4-.37,2.3,2.3,0,0,1,.63-.24,4.07,4.07,0,0,1,.82-.08,5.91,5.91,0,0,1,.7.05,5.11,5.11,0,0,1,.74.15,6.84,6.84,0,0,1,.72.25,5.75,5.75,0,0,1,.65.36V12.15a5.94,5.94,0,0,0-1.32-.34,11.34,11.34,0,0,0-1.64-.11,7.89,7.89,0,0,0-1.78.2,4.58,4.58,0,0,0-1.48.62,3,3,0,0,0-1.38,2.63,3,3,0,0,0,.68,2,5.11,5.11,0,0,0,2.07,1.39l1,.43a6,6,0,0,1,.81.44,2,2,0,0,1,.54.49,1,1,0,0,1,.2.61,1,1,0,0,1-.12.47,1.22,1.22,0,0,1-.38.37,2.3,2.3,0,0,1-.63.25,3.75,3.75,0,0,1-.87.09,5,5,0,0,1-1.7-.3,5.08,5.08,0,0,1-1.56-.89Z" fill="#3178c6" fill-rule="evenodd"/><path d="M22.93,18.07a4.67,4.67,0,0,0-1-.74,10.76,10.76,0,0,0-1.27-.62c-.35-.14-.66-.28-.93-.41a4.84,4.84,0,0,1-.7-.4,1.89,1.89,0,0,1-.45-.44,1,1,0,0,1-.16-.52.93.93,0,0,1,.14-.49,1.43,1.43,0,0,1,.4-.37,2.3,2.3,0,0,1,.63-.24,4.15,4.15,0,0,1,.82-.08,5.91,5.91,0,0,1,.7.05,5.11,5.11,0,0,1,.74.15,5.55,5.55,0,0,1,.72.25,5.75,5.75,0,0,1,.65.36V12.15a5.8,5.8,0,0,0-1.32-.34,11.24,11.24,0,0,0-1.64-.11,7.89,7.89,0,0,0-1.78.2,4.58,4.58,0,0,0-1.48.62,3.23,3.23,0,0,0-1,1.07,3.1,3.1,0,0,0-.37,1.56,3,3,0,0,0,.68,2,5.11,5.11,0,0,0,2.07,1.39l1,.43a5.46,5.46,0,0,1,.81.44,2,2,0,0,1,.54.49,1,1,0,0,1,.2.61,1,1,0,0,1-.12.47,1.12,1.12,0,0,1-.38.37,2.11,2.11,0,0,1-.62.25,3.84,3.84,0,0,1-.88.09,5.15,5.15,0,0,1-3.26-1.19v2.6a6,6,0,0,0,1.52.48,10,10,0,0,0,1.85.16,8.76,8.76,0,0,0,1.81-.17A4.6,4.6,0,0,0,22.37,23a3,3,0,0,0,1-1.07,3.29,3.29,0,0,0,.38-1.64A3.11,3.11,0,0,0,23.55,19,2.84,2.84,0,0,0,22.93,18.07Z" fill="#fff" fill-rule="evenodd"/><polygon points="11.28 23.33 11.28 13.83 14.64 13.83 14.64 11.7 5.28 11.7 5.28 13.83 8.62 13.83 8.62 23.33 11.28 23.33" fill="#fff" fill-rule="evenodd"/></g></g></svg>