<svg xmlns="http://www.w3.org/2000/svg" viewBox="0 0 131.08 34.54"><g id="Capa_2" data-name="Capa 2"><g id="Capa_1-2" data-name="Capa 1"><path d="M8.32,25.8A10.68,10.68,0,0,1,4,25a7.25,7.25,0,0,1-2.93-2.35A6,6,0,0,1,0,19.13H3.35A4.56,4.56,0,0,0,4.73,22a5.14,5.14,0,0,0,3.59,1.14A5.25,5.25,0,0,0,11.85,22a3.7,3.7,0,0,0,1.31-2.91,3.25,3.25,0,0,0-.76-2.24,4.84,4.84,0,0,0-1.9-1.31,30.42,30.42,0,0,0-3.07-1,28.18,28.18,0,0,1-3.84-1.24,6.4,6.4,0,0,1-2.45-1.94,5.86,5.86,0,0,1-1-3.59,6.2,6.2,0,0,1,1-3.49A6.62,6.62,0,0,1,3.94,2a10.06,10.06,0,0,1,4.18-.83,8.62,8.62,0,0,1,5.52,1.7A6.26,6.26,0,0,1,16.1,7.36H12.64a3.66,3.66,0,0,0-1.45-2.42A5.11,5.11,0,0,0,7.81,3.87a4.86,4.86,0,0,0-3.22,1A3.44,3.44,0,0,0,3.35,7.74a3.11,3.11,0,0,0,.73,2.14,5.08,5.08,0,0,0,1.83,1.28c.73.27,1.76.6,3.07,1a26.36,26.36,0,0,1,3.83,1.32,6.18,6.18,0,0,1,2.49,2,5.69,5.69,0,0,1,1,3.6,6.25,6.25,0,0,1-.94,3.31,6.78,6.78,0,0,1-2.76,2.52A9.06,9.06,0,0,1,8.32,25.8Zm23.21-.24L24.11,17.2v8.36H21V0h3.15V15l7.28-8.39h4.39l-8.91,9.43,8.94,9.5Zm6-9.53A10.56,10.56,0,0,1,38.74,11,8.55,8.55,0,0,1,42,7.53a8.9,8.9,0,0,1,4.59-1.21,8.44,8.44,0,0,1,4.32,1.07,7.15,7.15,0,0,1,2.73,2.7V6.63h3.18V25.56H53.59V22a7.5,7.5,0,0,1-2.8,2.76,8.37,8.37,0,0,1-4.28,1.07A8.58,8.58,0,0,1,42,24.63a8.74,8.74,0,0,1-3.21-3.49A10.91,10.91,0,0,1,37.56,16Zm16,0a7.75,7.75,0,0,0-.86-3.73,6,6,0,0,0-2.35-2.42,6.22,6.22,0,0,0-3.21-.86A6.41,6.41,0,0,0,44,9.88a6.06,6.06,0,0,0-2.31,2.42A7.64,7.64,0,0,0,40.78,16a8,8,0,0,0,.86,3.8,6.4,6.4,0,0,0,8.74,2.45,6.3,6.3,0,0,0,2.35-2.45A8,8,0,0,0,53.59,16.06Zm11.63-5.94A7.39,7.39,0,0,1,68,7.43,8.26,8.26,0,0,1,72.3,6.32a8.74,8.74,0,0,1,4.56,1.21A8.51,8.51,0,0,1,80.11,11,10.56,10.56,0,0,1,81.28,16a10.9,10.9,0,0,1-1.17,5.11,8.69,8.69,0,0,1-3.25,3.49,8.58,8.58,0,0,1-4.56,1.24A8.47,8.47,0,0,1,68,24.8a8.06,8.06,0,0,1-2.8-2.73V34.54H62.08V6.63h3.14ZM78.07,16a7.75,7.75,0,0,0-.86-3.73,6,6,0,0,0-2.35-2.42,6.4,6.4,0,0,0-3.21-.83,6.33,6.33,0,0,0-3.21.86,6.14,6.14,0,0,0-2.35,2.46,7.54,7.54,0,0,0-.87,3.69,7.89,7.89,0,0,0,.87,3.77,6.14,6.14,0,0,0,5.56,3.28,6.4,6.4,0,0,0,3.21-.83,6.3,6.3,0,0,0,2.35-2.45A8.07,8.07,0,0,0,78.07,16Zm33.8,0A10.44,10.44,0,0,1,113.05,11a8.55,8.55,0,0,1,3.21-3.42,9,9,0,0,1,4.63-1.21,8.48,8.48,0,0,1,4.11,1A7.2,7.2,0,0,1,127.9,10V0h3.18V25.56H127.9V22a7.48,7.48,0,0,1-2.76,2.8,8.4,8.4,0,0,1-4.29,1.07,8.54,8.54,0,0,1-7.8-4.73A10.79,10.79,0,0,1,111.87,16Zm16,0a7.64,7.64,0,0,0-.87-3.73,5.94,5.94,0,0,0-2.34-2.42,6.23,6.23,0,0,0-3.22-.86,6.4,6.4,0,0,0-3.21.83A5.93,5.93,0,0,0,116,12.3a7.64,7.64,0,0,0-.87,3.73,8,8,0,0,0,.87,3.8,6.27,6.27,0,0,0,2.31,2.45,6.64,6.64,0,0,0,6.43,0A6.21,6.21,0,0,0,127,19.83,7.89,7.89,0,0,0,127.9,16.06Z" fill="#fff"/><path d="M86.57,5.86l6.54,9.44-6.38,9.87h6.42l3.1-5.36,3.69,5.36h6.65L99.93,15.6l6.47-9.71H100l-3.12,5.29L93.17,5.86Z" fill="#ff0513" stroke="#fff" stroke-miterlimit="10"/></g></g></svg>